<svg width="532" height="156" viewBox="0 0 532 156" fill="none" xmlns="http://www.w3.org/2000/svg">
<path d="M0 82.9511V0.609934H68.1997V4.45252H7.46072V41.3535H63.46V45.0741H7.46072V82.9511H0Z" fill="white"/>
<path d="M125.945 83.5C113.013 83.5 103.036 81.6092 96.0142 77.8276C88.9924 74.046 85.4814 67.6824 85.4814 58.7367V0.670923H92.9421V57.8218C92.9421 65.7509 95.7509 71.3826 101.368 74.7169C107.044 78.0106 115.237 79.6574 125.945 79.6574C136.712 79.6574 144.904 78.0106 150.521 74.7169C156.197 71.4233 159.035 65.7916 159.035 57.8218V0.670923H166.408V58.7367C166.408 67.6824 162.897 74.046 155.875 77.8276C148.854 81.6092 138.877 83.5 125.945 83.5Z" fill="white"/>
<path d="M187.175 82.9511V0.609934H194.636V79.1085H249.933V82.9511H187.175Z" fill="white"/>
<path d="M284.008 82.9511V4.45252H246.704V0.609934H328.597V4.45252H291.381V82.9511H284.008Z" fill="white"/>
<path d="M384.601 83.5C370.265 83.5 359.089 80.3283 351.072 73.985C343.055 67.6011 339.047 56.8662 339.047 41.7805C339.047 26.6948 343.026 15.9599 350.984 9.57596C359.001 3.19199 370.207 0 384.601 0C398.938 0 410.114 3.21232 418.131 9.63696C426.147 16.0209 430.156 26.7354 430.156 41.7805C430.156 56.8662 426.147 67.6011 418.131 73.985C410.114 80.3283 398.938 83.5 384.601 83.5ZM384.601 79.6574C395.778 79.6574 404.935 76.9737 412.074 71.6063C419.213 66.1982 422.783 56.2563 422.783 41.7805C422.783 27.2641 419.213 17.3221 412.074 11.9547C404.935 6.54663 395.778 3.84258 384.601 3.84258C373.483 3.84258 364.355 6.54663 357.216 11.9547C350.077 17.3221 346.508 27.2641 346.508 41.7805C346.508 56.2563 350.077 66.1982 357.216 71.6063C364.355 76.9737 373.483 79.6574 384.601 79.6574Z" fill="white"/>
<path d="M446.894 82.9511V0.609934H459.007L524.222 78.7425H524.486L524.573 0.609934H531.946V82.9511H519.921L454.618 4.6355H454.267V82.9511H446.894Z" fill="white"/>
<path d="M2.03068 155.5V120.64H23.9278C28.9028 120.64 31.9584 121.578 33.0946 123.455C34.248 125.314 34.8247 127.216 34.8247 129.162C34.8247 131.09 34.3857 132.854 33.5078 134.455C32.6298 136.056 31.0375 136.891 28.7307 136.96C31.0202 137.08 32.7589 137.941 33.9467 139.542C35.1345 141.126 35.7285 143.097 35.7285 145.455C35.7285 148.21 35.1776 150.577 34.0758 152.556C32.9913 154.519 29.8841 155.5 24.7541 155.5H2.03068ZM13.8314 147.547H21.7587C22.7916 147.547 23.4113 147.306 23.6179 146.824C23.8417 146.342 23.9536 145.472 23.9536 144.216C23.9536 142.959 23.8417 142.055 23.6179 141.504C23.4113 140.936 22.783 140.652 21.7329 140.652H13.8314V147.547ZM13.8314 133.603H20.9582C21.8362 133.603 22.3871 133.37 22.6109 132.906C22.8346 132.441 22.9465 131.778 22.9465 130.917C22.9465 130.074 22.826 129.471 22.585 129.11C22.3612 128.731 21.8276 128.542 20.9841 128.542H13.8314V133.603Z" fill="white"/>
<path d="M39.9568 155.5V120.64H62.5769C66.8634 120.64 69.7124 121.742 71.124 123.945C72.5356 126.149 73.2414 128.783 73.2414 131.847C73.2414 134.86 72.4926 137.39 70.9949 139.439C69.4972 141.487 66.5277 142.512 62.0863 142.512H51.7833V155.5H39.9568ZM61.3375 155.5L53.5392 139.439L65.2108 139.051L74.1194 155.5H61.3375ZM51.7833 135.359H58.6262C59.6935 135.359 60.4251 135.092 60.821 134.558C61.217 134.007 61.4149 133.155 61.4149 132.002C61.4149 130.831 61.2084 129.971 60.7952 129.42C60.3993 128.869 59.6763 128.593 58.6262 128.593H51.7833V135.359Z" fill="white"/>
<path d="M77.9588 155.5V120.64H89.7078V155.5H77.9588Z" fill="white"/>
<path d="M110.939 155.707C104.432 155.707 100.008 154.114 97.6667 150.93C95.3255 147.745 94.1549 143.415 94.1549 137.941C94.1549 132.363 95.3685 128.034 97.7958 124.953C100.223 121.854 104.94 120.305 111.946 120.305C118.453 120.305 122.903 121.673 125.296 124.41C127.706 127.147 128.997 130.117 129.17 133.319H117.369C117.162 130.978 116.646 129.549 115.82 129.032C114.993 128.499 113.711 128.232 111.972 128.232C110.165 128.232 108.719 128.688 107.634 129.6C106.567 130.513 106.033 133.422 106.033 138.328C106.033 142.288 106.567 144.853 107.634 146.023C108.719 147.194 110.199 147.779 112.075 147.779C113.797 147.779 115.019 147.504 115.742 146.953C116.465 146.385 116.93 145.188 117.136 143.364L117.162 143.286H112.566V136.418H129.17V155.5H122.611L121.268 151.962C119.512 154.441 116.069 155.689 110.939 155.707Z" fill="white"/>
<path d="M133.814 155.5V120.64H145.615V134.481H156.073V120.64H167.873V155.5H156.073V142.434H145.615V155.5H133.814Z" fill="white"/>
<path d="M182.488 155.5V128.593H172.366V120.64H204.386V128.593H194.289V155.5H182.488Z" fill="white"/>
<path d="M207.895 155.5V120.64H235.473V128.593H219.696V134.197H234.156V141.763H219.696V147.547H235.473V155.5H207.895Z" fill="white"/>
<path d="M239.472 155.5V120.64H262.093C266.379 120.64 269.228 121.742 270.64 123.945C272.051 126.149 272.757 128.783 272.757 131.847C272.757 134.86 272.008 137.39 270.511 139.439C269.013 141.487 266.043 142.512 261.602 142.512H251.299V155.5H239.472ZM260.853 155.5L253.055 139.439L264.726 139.051L273.635 155.5H260.853ZM251.299 135.359H258.142C259.209 135.359 259.941 135.092 260.337 134.558C260.733 134.007 260.931 133.155 260.931 132.002C260.931 130.831 260.724 129.971 260.311 129.42C259.915 128.869 259.192 128.593 258.142 128.593H251.299V135.359Z" fill="white"/>
<path d="M284.371 155.5V120.64H310.296V128.593H296.172V136.392H309.083V143.958H296.172V155.5H284.371Z" fill="white"/>
<path d="M331.366 155.681C325.427 155.681 321.028 154.734 318.171 152.84C315.33 150.93 313.91 147.745 313.91 143.286V120.64H325.711V142.073C325.711 144.052 326.133 145.49 326.976 146.385C327.82 147.28 329.283 147.728 331.366 147.728C333.449 147.728 334.912 147.289 335.756 146.411C336.599 145.515 337.021 144.069 337.021 142.073V120.64H348.822V143.286C348.822 147.745 347.393 150.93 344.535 152.84C341.695 154.734 337.305 155.681 331.366 155.681Z" fill="white"/>
<path d="M362.94 155.5V128.593H352.818V120.64H384.837V128.593H374.741V155.5H362.94Z" fill="white"/>
<path d="M405.957 155.681C400.018 155.681 395.62 154.734 392.762 152.84C389.922 150.93 388.502 147.745 388.502 143.286V120.64H400.302V142.073C400.302 144.052 400.724 145.49 401.568 146.385C402.411 147.28 403.874 147.728 405.957 147.728C408.04 147.728 409.504 147.289 410.347 146.411C411.191 145.515 411.612 144.069 411.612 142.073V120.64H423.413V143.286C423.413 147.745 421.984 150.93 419.127 152.84C416.286 154.734 411.896 155.681 405.957 155.681Z" fill="white"/>
<path d="M427.59 155.5V120.64H450.21C454.497 120.64 457.346 121.742 458.757 123.945C460.169 126.149 460.875 128.783 460.875 131.847C460.875 134.86 460.126 137.39 458.628 139.439C457.131 141.487 454.161 142.512 449.72 142.512H439.417V155.5H427.59ZM448.971 155.5L441.173 139.439L452.844 139.051L461.753 155.5H448.971ZM439.417 135.359H446.259C447.327 135.359 448.058 135.092 448.454 134.558C448.85 134.007 449.048 133.155 449.048 132.002C449.048 130.831 448.842 129.971 448.429 129.42C448.033 128.869 447.31 128.593 446.259 128.593H439.417V135.359Z" fill="white"/>
<path d="M464.249 155.5V120.64H491.827V128.593H476.05V134.197H490.51V141.763H476.05V147.547H491.827V155.5H464.249Z" fill="white"/>
<path d="M512.818 155.681C505.777 155.681 501.086 154.502 498.745 152.143C496.421 149.767 495.259 146.789 495.259 143.209H507.034C507.034 145.343 507.593 146.643 508.712 147.108C509.848 147.555 511.182 147.779 512.715 147.779C514.264 147.779 515.589 147.624 516.691 147.314C517.81 147.005 518.37 146.368 518.37 145.404C518.37 144.302 517.517 143.579 515.813 143.235C514.126 142.89 511.828 142.494 508.919 142.047C503.634 141.048 500.036 139.886 498.125 138.561C496.231 137.235 495.285 135.04 495.285 131.976C495.285 128.791 496.464 126.054 498.822 123.765C501.181 121.458 505.768 120.305 512.585 120.305C519.368 120.305 523.947 121.535 526.323 123.997C528.716 126.442 529.912 129.342 529.912 132.699H518.111C518.111 130.599 517.526 129.325 516.355 128.877C515.185 128.43 513.885 128.206 512.456 128.206C510.821 128.206 509.444 128.387 508.325 128.748C507.223 129.11 506.672 129.73 506.672 130.608C506.672 131.864 507.55 132.656 509.306 132.983C511.062 133.293 513.369 133.689 516.226 134.171C521.718 135.169 525.376 136.271 527.201 137.476C529.043 138.664 529.964 140.747 529.964 143.725C529.964 147.013 528.819 149.828 526.529 152.169C524.24 154.51 519.669 155.681 512.818 155.681Z" fill="white"/>
</svg>
